<svg id="SvgjsSvg1097" width="288" height="288" xmlns="http://www.w3.org/2000/svg" version="1.1" xmlns:xlink="http://www.w3.org/1999/xlink" xmlns:svgjs="http://svgjs.com/svgjs"><defs id="SvgjsDefs1098"></defs><g id="SvgjsG1099"><svg xmlns="http://www.w3.org/2000/svg" viewBox="0 0 28 28" width="288" height="288"><path fill="#ffffff" d="M14.14 2.714C8.93 2.768 2.037 7.932 2.099 15.79s7.078 9.537 11.464 9.897 13.073-2.819 11.22-12.356S17.765 2.677 14.14 2.714z" class="colorFFA0C6 svgShape"></path><path d="M9.84 21.858a.5.5 0 0 1-.368-.161C6.583 19.883 5 17.134 5 13.964 5 9.716 7.799 7.332 9.467 6.29a.497.497 0 0 1 .552-.122.513.513 0 0 1 .321.475v5.271a.5.5 0 0 1-1 0V7.586C7.869 8.68 6 10.71 6 13.964c0 3.285 1.87 5.338 3.34 6.443v-4.254a.5.5 0 0 1 1 0v5.205a.5.5 0 0 1-.5.5zm8.175.142a.5.5 0 0 1-.5-.5v-5.347a.5.5 0 0 1 1 0v4.362c.783-.57 1.878-1.475 2.749-3.092.478-1.006.736-2.211.736-3.459 0-3.651-2.203-5.549-3.485-6.479v4.417a.5.5 0 0 1-1 0V6.5a.499.499 0 0 1 .863-.344c.055.054.172.13.327.239C19.88 7.214 23 9.393 23 13.964c0 1.396-.292 2.748-.844 3.911-1.127 2.095-2.607 3.138-3.401 3.698-.173.122-.315.221-.412.305a.503.503 0 0 1-.328.122z" fill="#000000" class="color000 svgShape"></path><path d="M18.015 17.024H9.84a.5.5 0 0 1-.5-.5v-4.621a.5.5 0 0 1 .5-.5h8.175a.5.5 0 0 1 .5.5v4.621a.5.5 0 0 1-.5.5zm-7.675-1h7.175v-3.621H10.34v3.621z" fill="#000000" class="color000 svgShape"></path><path d="M14.037 26C7.399 26 2 20.601 2 13.963 2 7.367 7.399 2 14.037 2 20.633 2 26 7.367 26 13.963 26 20.601 20.633 26 14.037 26zm0-23C8.054 3 3 8.021 3 13.963 3 20.049 7.951 25 14.037 25 20.082 25 25 20.049 25 13.963 25 7.918 20.082 3 14.037 3z" fill="#000000" class="color000 svgShape"></path></svg></g></svg>